<?xml version="1.0" standalone="no"?>
<!DOCTYPE svg PUBLIC "-//W3C//DTD SVG 20010904//EN"
 "http://www.w3.org/TR/2001/REC-SVG-20010904/DTD/svg10.dtd">
<svg version="1.0" xmlns="http://www.w3.org/2000/svg"
 width="700.000000pt" height="700.000000pt" viewBox="0 0 700.000000 700.000000"
 preserveAspectRatio="xMidYMid meet">
<metadata>
Created by potrace 1.11, written by Peter Selinger 2001-2013
</metadata>
<g transform="translate(0.000000,700.000000) scale(0.100000,-0.100000)"
fill="#000000" stroke="none">
<path d="M2122 6984 c-18 -9 -43 -31 -55 -48 l-22 -31 -2 -968 c-1 -533 -4
-971 -6 -974 -3 -2 -436 -5 -963 -5 -915 0 -959 0 -994 -18 -60 -30 -88 -89
-76 -155 8 -41 49 -93 85 -107 17 -6 374 -10 983 -9 627 0 960 -4 964 -10 4
-8 8 -1851 5 -2265 l-1 -60 -964 0 c-924 0 -966 -1 -1000 -19 -99 -54 -98
-203 3 -254 34 -18 85 -19 994 -19 527 0 960 -2 963 -5 3 -3 6 -439 7 -969 2
-885 3 -965 19 -994 23 -42 61 -65 116 -71 56 -6 104 21 136 76 19 33 20 56
20 992 1 526 4 960 8 964 8 8 2302 10 2315 2 6 -4 9 -394 8 -944 0 -516 3
-956 8 -978 27 -130 206 -155 266 -36 18 34 19 85 19 994 0 527 3 961 5 964 3
3 437 5 964 5 921 0 959 1 995 19 50 25 82 87 75 142 -7 48 -32 85 -77 111
-32 19 -62 20 -997 20 l-963 0 -1 40 c0 23 0 547 -1 1166 l0 1125 962 1 c1088
2 1020 -3 1060 79 11 23 20 54 20 69 0 41 -28 93 -64 119 l-31 22 -969 2
c-532 1 -970 4 -973 7 -3 2 -5 436 -5 963 0 909 -1 960 -19 994 -60 119 -239
95 -266 -36 -5 -22 -8 -464 -8 -982 l1 -943 -50 0 c-61 -1 -2122 -1 -2217 0
l-65 0 0 963 c0 936 -1 964 -20 997 -10 18 -30 41 -44 51 -36 27 -108 33 -148
13z m2541 -2327 c2 -7 3 -532 3 -1167 l-1 -1155 -1166 -1 -1165 0 0 1160 c0
739 3 1163 9 1167 6 4 529 7 1163 7 863 0 1154 -3 1157 -11z"/>
<path d="M3440 4373 c-174 -19 -355 -85 -456 -165 -268 -214 -388 -497 -351
-827 19 -165 113 -358 235 -484 234 -242 578 -330 895 -230 275 86 493 310
575 588 36 121 44 234 28 368 -4 29 -6 54 -6 57 3 14 -66 192 -93 240 -121
219 -339 382 -582 435 -67 14 -192 23 -245 18z m199 -309 c221 -50 399 -244
434 -471 13 -82 13 -89 4 -168 -24 -190 -145 -359 -319 -444 -89 -44 -158 -61
-253 -63 -315 -6 -584 257 -586 572 -2 259 152 480 391 560 114 38 205 42 329
14z"/>
<path d="M371 6688 c-49 -24 -85 -87 -77 -135 2 -16 5 -35 5 -43 1 -8 117
-130 258 -272 l258 -258 -247 -248 c-135 -136 -254 -262 -263 -281 -37 -75 18
-181 102 -197 75 -14 94 0 361 268 l252 252 258 -256 c221 -220 262 -257 294
-263 106 -20 193 66 174 172 -7 33 -41 71 -264 295 l-256 258 249 249 c138
138 255 263 262 278 30 70 2 143 -68 181 -48 26 -103 24 -143 -3 -11 -9 -130
-124 -264 -257 l-242 -242 -253 251 c-138 139 -265 257 -280 263 -42 15 -67
12 -116 -12z"/>
<path d="M5334 1736 c-39 -17 -72 -59 -80 -101 -14 -75 -6 -85 264 -357 l256
-258 -252 -251 c-268 -267 -282 -286 -268 -362 9 -47 53 -92 105 -108 76 -23
91 -12 369 264 l252 252 253 -252 c138 -139 265 -257 280 -263 41 -15 65 -13
112 10 65 31 86 80 76 180 0 8 -117 130 -258 272 l-257 258 256 257 c272 275
278 282 262 361 -9 44 -66 100 -110 108 -76 14 -94 0 -363 -268 l-252 -252
-252 251 c-139 139 -265 257 -280 263 -38 13 -75 12 -113 -4z"/>
</g>
</svg>
